# xmcd CD database file
#
# Track frame offsets:
#	150
#	24622
#	55049
#	77559
#	90067
#	103080
#	115685
#	137958
#	165563
#	179449
#	190942
#	205142
#	220109
#	242016
#	261826
#	270792
#	280440
#	305225
#	323467
#	336554
#
# Disc length: 4642 seconds
#
# Revision: 0
# Processed by: cddbd v1.5.2PL0 Copyright (c) Steve Scherf et al.
# Submitted via: CDex 2.09
#
DISCID=18122014
DTITLE=Dave Brubeck - 60 Essential Recordings [CD1)
DYEAR=2018
DGENRE=Jazz
TTITLE0=Take Five
TTITLE1=Blue Rondo A La Turk
TTITLE2=In Your Own Sweet Way
TTITLE3=Tea For Two
TTITLE4=September In The Rain
TTITLE5=Always
TTITLE6=Jeepers Creepers
TTITLE7=Summer Song
TTITLE8=How High The Moon
TTITLE9=My Romance
TTITLE10=A Foggy Day
TTITLE11=The Trolley Song (Live)
TTITLE12=Kathy's Waltz
TTITLE13=Everybody's Jumpin'
TTITLE14=Camptown Races
TTITLE15=There'll Be Some Changes Made (with Jimmy Rushing)
TTITLE16=I Feel Pretty
TTITLE17=Tonight
TTITLE18=The Duke
TTITLE19=Indiana
EXTD=YEAR: 2018
EXTT0=
EXTT1=
EXTT2=
EXTT3=
EXTT4=
EXTT5=
EXTT6=
EXTT7=
EXTT8=
EXTT9=
EXTT10=
EXTT11=
EXTT12=
EXTT13=
EXTT14=
EXTT15=
EXTT16=
EXTT17=
EXTT18=
EXTT19=
PLAYORDER=
